External Loads File
version=1
nRows=31
nColumns=13
Range=5.000000e-03-10 seconds
endheader
time 	forceRightX 	forceRightY 	forceRightZ 	pointRightX 	pointRightY 	pointRightZ 	forceLeftX 	forceLeftY 	forceLeftZ 	pointLeftX 	pointLeftY 	pointLeftZ 		
5.005000 106.107260 46.834019 -0.000000 0.046233 0.399160 -0.101761 -249.788532 652.447113 -0.000000 0.300978 0.239630 -0.345645
5.010000 100.061638 42.153040 -0.000000 0.051394 0.407979 -0.101874 -229.930185 665.851397 -0.000000 0.296848 0.230964 -0.345366
5.015000 91.542356 36.881142 -0.000000 0.057594 0.416706 -0.101992 -206.477096 678.034293 -0.000000 0.292230 0.222530 -0.345070
5.020000 80.666718 31.261939 -0.000000 0.063920 0.425015 -0.102253 -181.307692 688.168805 -0.000000 0.287159 0.214201 -0.344866
5.025000 67.731705 25.271976 -0.000000 0.070873 0.432883 -0.102378 -154.855754 696.018324 -0.000000 0.281680 0.206341 -0.344643
5.030000 53.103219 18.851531 -0.000000 0.077768 0.440553 -0.102645 -127.902839 701.273061 -0.000000 0.275809 0.198778 -0.344489
5.035000 37.252912 11.738867 -0.000000 0.085826 0.447512 -0.102850 -99.589164 703.874183 -0.000000 0.269541 0.191540 -0.344317
5.040000 20.633049 3.788602 -0.000000 0.094286 0.454338 -0.102829 -70.652490 703.344757 -0.000000 0.262829 0.184724 -0.344220
5.045000 3.723647 -5.135030 -0.000000 0.102478 0.460734 -0.103054 -43.156142 699.151475 -0.000000 0.255843 0.178269 -0.343845
5.050000 -13.015968 -15.120244 -0.000000 0.111056 0.466898 -0.103691 -16.163460 691.111816 -0.000000 0.248525 0.172339 -0.343858
5.055000 -29.184471 -25.941070 -0.000000 0.119711 0.472524 -0.103946 9.106240 678.947954 -0.000000 0.240884 0.166906 -0.344223
5.060000 -44.395830 -37.096064 -0.000000 0.128369 0.477570 -0.104172 32.132570 662.565501 -0.000000 0.233045 0.161954 -0.344360
5.065000 -58.298866 -47.837234 -0.000000 0.137104 0.482268 -0.104316 52.933462 641.969272 -0.000000 0.225021 0.157491 -0.344486
5.070000 -70.530783 -57.369255 -0.000000 0.145744 0.486448 -0.104567 71.079697 617.397911 -0.000000 0.216759 0.153587 -0.344545
5.075000 -80.779566 -64.919900 -0.000000 0.154364 0.490094 -0.104756 86.734078 589.328073 -0.000000 0.208296 0.150340 -0.344647
5.080000 -88.846215 -69.830725 -0.000000 0.163061 0.493529 -0.104971 100.587922 558.332826 -0.000000 0.199528 0.147797 -0.344676
5.085000 -94.525340 -71.857264 -0.000000 0.171633 0.496152 -0.105133 112.296101 525.186444 -0.000000 0.190539 0.145679 -0.344714
5.090000 -97.818592 -70.944915 -0.000000 0.180094 0.498126 -0.105301 121.988517 490.512863 -0.000000 0.181413 0.144288 -0.344653
5.095000 -98.956247 -67.103698 -0.000000 0.188834 0.499669 -0.105539 130.201672 454.609949 -0.000000 0.172256 0.143445 -0.344566
5.100000 -98.076880 -60.700468 -0.000000 0.197245 0.500398 -0.105609 136.050195 417.941635 -0.000000 0.163147 0.143144 -0.344488
5.105000 -95.537579 -51.862755 -0.000000 0.205534 0.500686 -0.105488 139.758095 380.568046 -0.000000 0.154173 0.143364 -0.344293
5.110000 -91.651710 -40.767822 -0.000000 0.213545 0.500413 -0.105344 141.155794 342.656664 -0.000000 0.145408 0.144388 -0.344068
5.115000 -86.751384 -27.565205 -0.000000 0.221176 0.499441 -0.105196 140.223423 304.436561 -0.000000 0.136866 0.145979 -0.343838
5.120000 -81.196681 -12.423272 -0.000000 0.228450 0.497842 -0.104950 137.069711 266.281277 -0.000000 0.128622 0.148264 -0.343822
5.125000 -75.384582 4.440423 -0.000000 0.235227 0.495630 -0.104619 131.855132 228.789142 -0.000000 0.120627 0.151045 -0.343507
5.130000 -69.730458 22.884080 -0.000000 0.241589 0.492470 -0.104115 125.136359 192.566085 -0.000000 0.112669 0.154456 -0.343003
5.135000 -64.716016 42.551280 -0.000000 0.247611 0.488669 -0.103475 117.024098 158.681722 -0.000000 0.105214 0.158390 -0.342582
5.140000 -60.868117 63.234505 -0.000000 0.253054 0.484085 -0.102889 108.151010 128.022083 -0.000000 0.097974 0.162884 -0.342208
5.145000 -58.521394 84.953706 -0.000000 0.258718 0.478920 -0.102421 99.352798 101.229293 -0.000000 0.090842 0.167836 -0.341775
5.150000 -58.213990 107.655815 -0.000000 0.263830 0.473294 -0.102141 90.925424 79.202602 -0.000000 0.083994 0.173270 -0.340867
5.155000 -60.145577 131.625670 -0.000000 0.268598 0.466935 -0.101907 83.550650 62.160685 -0.000000 0.077396 0.179168 -0.341428
